<svg width="31" height="31" viewBox="0 0 31 31" fill="none" xmlns="http://www.w3.org/2000/svg">
<path d="M26.1562 3.1875H4.28125C2.46907 3.1875 1 4.65657 1 6.46875V26.1562C1 27.9684 2.46907 29.4375 4.28125 29.4375H26.1562C27.9684 29.4375 29.4375 27.9684 29.4375 26.1562V6.46875C29.4375 4.65657 27.9684 3.1875 26.1562 3.1875Z" stroke="white" stroke-width="2" stroke-linejoin="round"/>
<path d="M17.9531 15.2188C18.8592 15.2188 19.5938 14.4842 19.5938 13.5781C19.5938 12.672 18.8592 11.9375 17.9531 11.9375C17.047 11.9375 16.3125 12.672 16.3125 13.5781C16.3125 14.4842 17.047 15.2188 17.9531 15.2188Z" fill="white"/>
<path d="M23.4219 15.2188C24.328 15.2188 25.0625 14.4842 25.0625 13.5781C25.0625 12.672 24.328 11.9375 23.4219 11.9375C22.5158 11.9375 21.7812 12.672 21.7812 13.5781C21.7812 14.4842 22.5158 15.2188 23.4219 15.2188Z" fill="white"/>
<path d="M17.9531 20.6875C18.8592 20.6875 19.5938 19.953 19.5938 19.0469C19.5938 18.1408 18.8592 17.4062 17.9531 17.4062C17.047 17.4062 16.3125 18.1408 16.3125 19.0469C16.3125 19.953 17.047 20.6875 17.9531 20.6875Z" fill="white"/>
<path d="M23.4219 20.6875C24.328 20.6875 25.0625 19.953 25.0625 19.0469C25.0625 18.1408 24.328 17.4062 23.4219 17.4062C22.5158 17.4062 21.7812 18.1408 21.7812 19.0469C21.7812 19.953 22.5158 20.6875 23.4219 20.6875Z" fill="white"/>
<path d="M7.01562 20.6875C7.92172 20.6875 8.65625 19.953 8.65625 19.0469C8.65625 18.1408 7.92172 17.4062 7.01562 17.4062C6.10953 17.4062 5.375 18.1408 5.375 19.0469C5.375 19.953 6.10953 20.6875 7.01562 20.6875Z" fill="white"/>
<path d="M12.4844 20.6875C13.3905 20.6875 14.125 19.953 14.125 19.0469C14.125 18.1408 13.3905 17.4062 12.4844 17.4062C11.5783 17.4062 10.8438 18.1408 10.8438 19.0469C10.8438 19.953 11.5783 20.6875 12.4844 20.6875Z" fill="white"/>
<path d="M7.01562 26.1562C7.92172 26.1562 8.65625 25.4217 8.65625 24.5156C8.65625 23.6095 7.92172 22.875 7.01562 22.875C6.10953 22.875 5.375 23.6095 5.375 24.5156C5.375 25.4217 6.10953 26.1562 7.01562 26.1562Z" fill="white"/>
<path d="M12.4844 26.1562C13.3905 26.1562 14.125 25.4217 14.125 24.5156C14.125 23.6095 13.3905 22.875 12.4844 22.875C11.5783 22.875 10.8438 23.6095 10.8438 24.5156C10.8438 25.4217 11.5783 26.1562 12.4844 26.1562Z" fill="white"/>
<path d="M17.9531 26.1562C18.8592 26.1562 19.5938 25.4217 19.5938 24.5156C19.5938 23.6095 18.8592 22.875 17.9531 22.875C17.047 22.875 16.3125 23.6095 16.3125 24.5156C16.3125 25.4217 17.047 26.1562 17.9531 26.1562Z" fill="white"/>
<path d="M6.46875 1V3.1875M23.9688 1V3.1875" stroke="white" stroke-width="2" stroke-linecap="round" stroke-linejoin="round"/>
<path d="M29.4375 8.65625H1" stroke="white" stroke-width="2" stroke-linejoin="round"/>
</svg>
