<svg width="34" height="34" viewBox="0 0 34 34" fill="none" xmlns="http://www.w3.org/2000/svg">
<path d="M18.4167 18.4167H21.2501C21.6258 18.4167 21.9861 18.566 22.2518 18.8316C22.5175 19.0973 22.6667 19.4576 22.6667 19.8334C22.6667 20.2091 22.5175 20.5694 22.2518 20.8351C21.9861 21.1008 21.6258 21.25 21.2501 21.25H17.0001C16.8139 21.2506 16.6294 21.2143 16.4573 21.1433C16.2851 21.0724 16.1287 20.968 15.9971 20.8364C15.8654 20.7047 15.7611 20.5483 15.6901 20.3762C15.6191 20.204 15.5828 20.0196 15.5834 19.8334V14.1667C15.5834 13.791 15.7327 13.4306 15.9983 13.165C16.264 12.8993 16.6243 12.75 17.0001 12.75C17.3758 12.75 17.7361 12.8993 18.0018 13.165C18.2675 13.4306 18.4167 13.791 18.4167 14.1667V18.4167ZM8.31448 12.5531C7.99079 12.403 7.71011 12.1738 7.49833 11.8866C7.28655 11.5995 7.15049 11.2636 7.10269 10.91C7.0549 10.5564 7.09691 10.1965 7.22485 9.8634C7.35279 9.53032 7.56254 9.23481 7.83476 9.00414C8.10698 8.77347 8.4329 8.61506 8.78246 8.54351C9.13203 8.47197 9.49398 8.4896 9.83493 8.59478C10.1759 8.69995 10.4849 8.88929 10.7334 9.14533C10.9819 9.40136 11.1619 9.71585 11.2569 10.0598C11.7675 9.75973 12.3009 9.50016 12.8521 9.28346C12.2325 8.85293 11.7666 8.23581 11.5223 7.522C11.2779 6.8082 11.2679 6.03503 11.4937 5.31514C11.7195 4.59526 12.1693 3.96629 12.7775 3.51988C13.3857 3.07347 14.1206 2.83295 14.8751 2.83337H19.1251C19.8795 2.83295 20.6144 3.07347 21.2226 3.51988C21.8308 3.96629 22.2806 4.59526 22.5064 5.31514C22.7322 6.03503 22.7222 6.8082 22.4778 7.522C22.2335 8.23581 21.7676 8.85293 21.1481 9.28346C21.7015 9.50162 22.2332 9.7604 22.7432 10.0598C22.8382 9.71585 23.0182 9.40136 23.2667 9.14533C23.5153 8.88929 23.8242 8.69995 24.1652 8.59478C24.5062 8.4896 24.8681 8.47197 25.2177 8.54351C25.5672 8.61506 25.8931 8.77347 26.1654 9.00414C26.4376 9.23481 26.6473 9.53032 26.7753 9.8634C26.9032 10.1965 26.9452 10.5564 26.8974 10.91C26.8496 11.2636 26.7136 11.5995 26.5018 11.8866C26.29 12.1738 26.0093 12.403 25.6856 12.5531C27.071 14.2062 27.9559 16.2202 28.2364 18.3586C28.5169 20.497 28.1815 22.6711 27.2694 24.6256C26.3573 26.58 24.9065 28.2336 23.0873 29.3921C21.2681 30.5507 19.1561 31.1661 16.9994 31.1661C14.8426 31.1661 12.7306 30.5507 10.9114 29.3921C9.09225 28.2336 7.64142 26.58 6.72933 24.6256C5.81725 22.6711 5.48177 20.497 5.7623 18.3586C6.04284 16.2202 6.92915 14.2062 8.31448 12.5531ZM17.0001 28.3334C19.2544 28.3334 21.4164 27.4378 23.0105 25.8438C24.6045 24.2497 25.5001 22.0877 25.5001 19.8334C25.5001 17.579 24.6045 15.417 23.0105 13.823C21.4164 12.2289 19.2544 11.3334 17.0001 11.3334C14.7457 11.3334 12.5837 12.2289 10.9897 13.823C9.3956 15.417 8.50006 17.579 8.50006 19.8334C8.50006 22.0877 9.3956 24.2497 10.9897 25.8438C12.5837 27.4378 14.7457 28.3334 17.0001 28.3334ZM14.8751 5.66671C14.6872 5.66671 14.507 5.74134 14.3742 5.87417C14.2414 6.00701 14.1667 6.18718 14.1667 6.37504C14.1667 6.5629 14.2414 6.74307 14.3742 6.87591C14.507 7.00875 14.6872 7.08337 14.8751 7.08337H19.1251C19.3129 7.08337 19.4931 7.00875 19.6259 6.87591C19.7588 6.74307 19.8334 6.5629 19.8334 6.37504C19.8334 6.18718 19.7588 6.00701 19.6259 5.87417C19.4931 5.74134 19.3129 5.66671 19.1251 5.66671H14.8751Z" fill="white"/>
</svg>
