<svg width="201" height="50" viewBox="0 0 201 50" fill="none" xmlns="http://www.w3.org/2000/svg">
<path d="M0.679993 4.08594L19.3909 24.6641L19.6966 25L19.3909 25.3359L0.676086 45.9131L3.72003 49.2559L23.6126 27.3926L23.6136 27.3916C23.8959 27.0831 24.1225 26.7138 24.2776 26.3037C24.4328 25.8936 24.513 25.4524 24.513 25.0059C24.513 24.5593 24.4328 24.1181 24.2776 23.708C24.1225 23.298 23.8959 22.9286 23.6136 22.6201L23.6126 22.6182L3.72003 0.742187L0.679993 4.08594Z" stroke="white"/>
<path d="M25.6931 4.08594L44.404 24.6641L44.7097 25L44.404 25.3359L25.6891 45.9131L28.7331 49.2559L48.6257 27.3926L48.6266 27.3916C48.909 27.0831 49.1355 26.7138 49.2907 26.3037C49.4459 25.8936 49.5261 25.4524 49.5261 25.0059C49.5261 24.5593 49.4458 24.1181 49.2907 23.708C49.1356 23.298 48.9089 22.9286 48.6266 22.6201L48.6257 22.6182L28.7331 0.742187L25.6931 4.08594Z" stroke="white"/>
<path d="M50.7061 4.08594L69.4171 24.6641L69.7227 25L69.4171 25.3359L50.7022 45.9131L53.7462 49.2559L73.6387 27.3926L73.6397 27.3916C73.922 27.0831 74.1486 26.7138 74.3038 26.3037C74.4589 25.8936 74.5391 25.4524 74.5391 25.0059C74.5391 24.5593 74.4589 24.1181 74.3038 23.708C74.1486 23.298 73.922 22.9286 73.6397 22.6201L73.6387 22.6182L53.7462 0.742187L50.7061 4.08594Z" stroke="white"/>
<path d="M75.7191 4.08594L94.43 24.6641L94.7357 25L94.43 25.3359L75.7151 45.9131L78.7591 49.2559L98.6517 27.3926L98.6526 27.3916C98.935 27.0831 99.1615 26.7138 99.3167 26.3037C99.4719 25.8936 99.5521 25.4524 99.5521 25.0059C99.5521 24.5593 99.4718 24.1181 99.3167 23.708C99.1616 23.298 98.9349 22.9286 98.6526 22.6201L98.6517 22.6182L78.7591 0.742187L75.7191 4.08594Z" stroke="white"/>
<path d="M100.732 4.08594L119.443 24.6641L119.749 25L119.443 25.3359L100.728 45.9131L103.772 49.2559L123.665 27.3926L123.666 27.3916C123.948 27.0831 124.175 26.7138 124.33 26.3037C124.485 25.8936 124.565 25.4524 124.565 25.0059C124.565 24.5593 124.485 24.1181 124.33 23.708C124.175 23.298 123.948 22.9286 123.666 22.6201L123.665 22.6182L103.772 0.742187L100.732 4.08594Z" stroke="white"/>
<path d="M125.745 4.08594L144.456 24.6641L144.762 25L144.456 25.3359L125.741 45.9131L128.785 49.2559L148.678 27.3926L148.679 27.3916C148.961 27.0831 149.188 26.7138 149.343 26.3037C149.498 25.8936 149.578 25.4524 149.578 25.0059C149.578 24.5593 149.498 24.1181 149.343 23.708C149.188 23.298 148.961 22.9286 148.679 22.6201L148.678 22.6182L128.785 0.742187L125.745 4.08594Z" stroke="white"/>
<path d="M150.758 4.08594L169.469 24.6641L169.775 25L169.469 25.3359L150.754 45.9131L153.798 49.2559L173.691 27.3926L173.692 27.3916C173.974 27.0831 174.201 26.7138 174.356 26.3037C174.511 25.8936 174.591 25.4524 174.591 25.0059C174.591 24.5593 174.511 24.1181 174.356 23.708C174.201 23.298 173.974 22.9286 173.692 22.6201L173.691 22.6182L153.798 0.742187L150.758 4.08594Z" stroke="white"/>
<path d="M175.771 4.08594L194.482 24.6641L194.788 25L194.482 25.3359L175.767 45.9131L178.811 49.2559L198.704 27.3926L198.705 27.3916C198.987 27.0831 199.214 26.7138 199.369 26.3037C199.524 25.8936 199.604 25.4524 199.604 25.0059C199.604 24.5593 199.524 24.1181 199.369 23.708C199.214 23.298 198.987 22.9286 198.705 22.6201L198.704 22.6182L178.811 0.742187L175.771 4.08594Z" stroke="white"/>
</svg>
